<mxfile host="app.diagrams.net" modified="2021-07-17T13:45:27.865Z" agent="5.0 (Macintosh; Intel Mac OS X 10_15_6) AppleWebKit/537.36 (KHTML, like Gecko) Chrome/91.0.4472.114 Safari/537.36" etag="h7iPkoG6rC-tO6bmnvbn" version="14.9.0" type="github">
  <diagram id="WK6W-G4W51TGdagw_iwj" name="第 1 页">
    <mxGraphModel dx="1097" dy="687" grid="1" gridSize="10" guides="1" tooltips="1" connect="1" arrows="1" fold="1" page="1" pageScale="1" pageWidth="827" pageHeight="1169" math="0" shadow="0">
      <root>
        <mxCell id="0" />
        <mxCell id="1" parent="0" />
        <mxCell id="b4ontZy9VxUZm3hooDsz-1" value="java" style="rounded=0;whiteSpace=wrap;html=1;" vertex="1" parent="1">
          <mxGeometry x="210" y="290" width="160" height="80" as="geometry" />
        </mxCell>
        <mxCell id="b4ontZy9VxUZm3hooDsz-2" value="" style="shape=mxgraph.cisco.buildings.branch_office;html=1;pointerEvents=1;dashed=0;fillColor=#036897;strokeColor=#ffffff;strokeWidth=2;verticalLabelPosition=bottom;verticalAlign=top;align=center;outlineConnect=0;" vertex="1" parent="1">
          <mxGeometry x="260" y="100" width="51" height="75" as="geometry" />
        </mxCell>
      </root>
    </mxGraphModel>
  </diagram>
</mxfile>
